<svg version="1" xmlns="http://www.w3.org/2000/svg" width="682.667" height="682.667" viewBox="0 0 512.000000 512.000000"><path d="M90.9 64.2c-12 1.1-22 8.7-25.6 19.5-1.9 5.5-2 8.8-2 70.8 0 35.7.3 65.7.7 66.5.4.8 1.4 2.8 2.1 4.5 3.4 7.7 10.8 14.1 19.1 16.6 3.8 1.2 128.7 1.5 134 .4 8.7-1.9 16.1-7.8 20.4-16.2l2.9-5.8.1-64.5c.1-51.7-.1-65.6-1.2-69.8-1.6-6.1-6.3-13.4-10.2-15.9-1.5-1-2.9-2.1-3.2-2.4-.3-.4-2.8-1.4-5.5-2.3-4.5-1.5-12.4-1.7-65-1.9-33-.1-63 .1-66.6.5zm68.3 48.9c4.3 2.3 5.8 6.8 5.8 17.4v10.1l9.8-.1c5.3-.1 10.9.3 12.3.7 6.5 2.2 9.7 10.4 6.5 16.6-2.9 5.5-5.5 6.5-17.7 6.6l-10.9.1v11.1c0 9.9-.2 11.5-2.3 14.5-4.4 6.5-13.3 7.2-18.8 1.3-2.2-2.4-2.4-3.5-2.7-14.8l-.4-12.2H130c-10.2 0-11-.2-14.3-2.7-7.5-5.7-5.6-17.3 3.3-20.5 1.4-.5 6.9-.8 12.3-.7l9.7.1v-10c0-8.4.4-10.7 2-13.4 3.4-5.5 10.3-7.2 16.2-4.1zM294.9 64.3c-7.2 1-14.6 5.4-19 11.2-6.8 8.8-6.6 7-6.6 78.2 0 71.8-.2 69.8 7.1 78.8 3.7 4.5 10.1 8.5 16.1 10 3.6.9 127.5 1 132.4.1 8.5-1.6 16.6-8 20.7-16.4l2.9-5.7.1-35.1c0-19.3.4-35.6.8-36.2.4-.7.4-1.2-.1-1.2-1 0-.9-37.2.1-38.8.4-.7.4-1.2-.1-1.2-.4 0-.7-3.7-.6-8.3.1-4.5-.3-10.2-.9-12.7-1.6-6.1-5.9-13-10.6-16.7-8-6.5-7.5-6.4-75.4-6.6-33.8-.1-63.9.1-66.9.6zm99.8 76.5c6.1 3.4 8 10.8 4.3 16.9-3.4 5.6-3.6 5.6-40 5.6-33.5 0-39.2-.5-37.4-3.5.4-.7.3-.8-.4-.4-1.5.9-4.2-4.5-4.2-8.4 0-4.5 2.8-8.7 6.9-10.3 4.7-1.9 67.4-1.8 70.8.1zM94 269.1c-14.1.8-22.4 5.8-27.7 16.7l-2.8 5.7-.1 65.9c-.1 62.7 0 66.1 1.8 70.9C68.9 438 76 444.4 86 447c3.2.9 22 1.2 67.5 1.2 68.7-.1 68.3-.1 76.7-5.8 3.9-2.7 8-8 10.8-13.9 2.2-4.5 2.5-130.6.4-138.1-2.7-9.5-11-17.9-20.4-20.4-4.7-1.3-108.8-2-127-.9zm85.6 57.4c2.5 1 4 2.6 5.3 5.6 2.9 6.3 1.4 9.9-7.5 18.9l-7.4 7.5 7.1 7c7.7 7.6 9.9 11 9.9 15 0 4.1-2.8 9.2-5.8 10.4-7.6 3.1-10.7 1.8-20.9-8.2l-7.3-7.1-7.2 7c-8.1 7.8-10.7 9.3-15.6 8.8-5.1-.6-8.1-3.1-9.6-8.3-1.8-6.3-.9-8.3 7.9-17l7.5-7.5-7.5-7.7c-4.7-4.8-7.6-8.6-7.6-10-.6-9.6 3.8-14.9 12.4-14.9 3.3 0 4.6.9 11.8 7.7l8 7.6 6.1-5.9c3.4-3.2 6.7-6.4 7.2-7 3.3-3.5 7.8-4.2 13.2-1.9zM295.5 269.1c-9.9 1.2-18.4 7.3-23.1 16.6l-2.9 5.8v134l2.4 4.9c4.3 8.6 12.9 15.6 21.2 17.1 3.5.7 128.3.8 130.9.2 5.2-1.3 7.8-2.2 10-3.6 4.3-2.6 10.2-9.3 12.3-14.1 2-4.4 2.1-6.1 2.2-70.5.2-60.5 0-66.3-1.6-70.7-3.6-10-13.3-18.1-23.1-19.4-6.2-.8-121.8-1.1-128.3-.3zm100.1 56.8c7.3 4.9 7 16-.7 20.5-2.4 1.4-6.9 1.6-35.9 1.6-32.9 0-35.3-.2-38.6-3.4-5.5-5.6-4.1-15.5 2.8-18.9 2.9-1.5 7.4-1.7 36.8-1.4 26.9.2 33.9.5 35.6 1.6zm-.6 44.6c5.6 2.9 7.6 10.5 4.3 16.3-3.3 5.7-4.7 5.9-39.8 6-20.6.1-33.1-.3-35.1-1-6.3-2.2-9.2-10.5-5.9-16.8 3.2-6.2 6.3-6.6 45.7-6.3 22.9.2 28.3.5 30.8 1.8z"/></svg>